<?xml version="1.0" encoding="UTF-8" standalone="no"?>
<svg
   xmlns:dc="http://purl.org/dc/elements/1.1/"
   xmlns:cc="http://creativecommons.org/ns#"
   xmlns:rdf="http://www.w3.org/1999/02/22-rdf-syntax-ns#"
   xmlns:svg="http://www.w3.org/2000/svg"
   xmlns="http://www.w3.org/2000/svg"
   xmlns:sodipodi="http://sodipodi.sourceforge.net/DTD/sodipodi-0.dtd"
   xmlns:inkscape="http://www.inkscape.org/namespaces/inkscape"
   viewBox="0 0 24 24"
   fill="none"
   stroke="currentColor"
   stroke-width="2"
   stroke-linecap="round"
   stroke-linejoin="round"
   class="feather feather-help-circle"
   version="1.1"
   id="svg8"
   sodipodi:docname="buttonBorder.svg"
   inkscape:version="1.0.2-2 (e86c870879, 2021-01-15)">
  <metadata
     id="metadata14">
    <rdf:RDF>
      <cc:Work
         rdf:about="">
        <dc:format>image/svg+xml</dc:format>
        <dc:type
           rdf:resource="http://purl.org/dc/dcmitype/StillImage" />
        <dc:title />
      </cc:Work>
    </rdf:RDF>
  </metadata>
  <defs
     id="defs12" />
  <sodipodi:namedview
     pagecolor="#ffffff"
     bordercolor="#666666"
     borderopacity="1"
     objecttolerance="10"
     gridtolerance="10"
     guidetolerance="10"
     inkscape:pageopacity="0"
     inkscape:pageshadow="2"
     inkscape:window-width="1920"
     inkscape:window-height="1000"
     id="namedview10"
     showgrid="false"
     inkscape:zoom="22.627417"
     inkscape:cx="16.809795"
     inkscape:cy="10.546138"
     inkscape:window-x="-11"
     inkscape:window-y="-11"
     inkscape:window-maximized="1"
     inkscape:current-layer="svg8"
     inkscape:document-rotation="0" />
  <circle
     cx="12"
     cy="12"
     r="10"
     id="circle2" />
  <path
     style="fill:#ffffff;stroke-width:0.0589681"
     d="m 11.291858,22.96456 c -0.05676,-0.0066 -0.255774,-0.02645 -0.44226,-0.04418 C 7.759953,22.626647 4.8184817,20.889244 2.9919934,18.279227 0.86299844,15.236934 0.42435899,11.275926 1.8358216,7.8387487 3.1623113,4.6084964 5.9780568,2.1753662 9.3552168,1.3411204 14.65224,0.03261882 20.090215,2.7950541 22.167421,7.8495879 c 0.809623,1.9700836 1.023526,4.1890341 0.606069,6.2871331 -0.604794,3.039635 -2.474985,5.690734 -5.142565,7.28987 -1.312341,0.786709 -2.755097,1.28042 -4.334153,1.483145 -0.348161,0.0447 -1.759028,0.08328 -2.004914,0.05482 z m 2.019656,-2.045257 c 1.545064,-0.237304 2.863564,-0.788381 4.098281,-1.712907 2.550149,-1.909491 3.895165,-5.007636 3.551336,-8.18024 C 20.672487,8.362753 19.237475,5.9989408 16.997018,4.4963023 15.899089,3.7599388 14.676112,3.2928031 13.267658,3.0718135 c -0.339544,-0.053275 -0.526905,-0.062511 -1.268183,-0.062511 -0.741278,0 -0.928639,0.00924 -1.268183,0.062511 C 9.1240717,3.32399 7.7736126,3.8896811 6.5301877,4.8316056 6.2107067,5.0736202 5.9132615,5.3404563 5.5365594,5.7229821 2.8731915,8.427525 2.2231509,12.60248 3.932737,16.023699 c 0.46143,0.923413 1.0048782,1.667554 1.7621118,2.412851 1.3729922,1.35135 3.1012502,2.205793 5.0217012,2.482705 0.557135,0.08033 0.576915,0.08134 1.415603,0.07199 0.603793,-0.0067 0.854242,-0.02201 1.179361,-0.07194 z"
     id="path22" />
  <path
     style="fill:#ffffff;stroke-width:0.0589681"
     d=""
     id="path24" />
  <path
     style="fill:#ffffff;stroke-width:0.0078125"
     d=""
     id="path26" />
  <path
     style="fill:#cccccc;stroke-width:0.0883883"
     d="M 10.678197,22.854169 C 7.5180871,22.450148 4.63852,20.659898 2.8877507,18.010788 1.889104,16.499723 1.2882104,14.785005 1.1175315,12.959266 c -0.063879,-0.683311 -0.031601,-1.883404 0.06847,-2.54571 0.7466303,-4.9414556 4.7173379,-8.7446571 9.6915815,-9.2827374 0.732348,-0.079221 2.223939,-0.033574 2.921335,0.089401 2.198147,0.3876092 4.164395,1.3787337 5.744583,2.8956661 1.72711,1.6579736 2.806217,3.6917829 3.239835,6.1061713 0.08967,0.499306 0.101936,0.709887 0.102508,1.760392 7.21e-4,1.325002 -0.04048,1.690722 -0.308672,2.740039 -1.064796,4.166042 -4.520597,7.324723 -8.822449,8.063923 -0.728062,0.125105 -2.348784,0.1608 -3.076526,0.06776 z m 1.86686,-1.831814 c 0.501376,-0.02493 0.935383,-0.07502 1.304672,-0.150572 2.736575,-0.559854 5.065815,-2.375302 6.301967,-4.911858 0.92293,-1.893831 1.151874,-4.112317 0.636848,-6.1711101 C 20.007082,6.6649506 17.58731,4.1577268 14.523599,3.2974523 13.526057,3.0173476 13.172891,2.9714206 12.014727,2.9711894 11.111906,2.9710082 10.878436,2.985233 10.445834,3.0667716 8.4828812,3.436757 6.8960479,4.2724332 5.5328092,5.6541243 4.1916079,7.01348 3.3755046,8.6357602 3.0375324,10.614328 c -0.1063121,0.622375 -0.1081055,2.076835 -0.00338,2.744961 0.2487465,1.58702 0.9229467,3.113797 1.9192576,4.346305 0.3179031,0.393269 1.1197826,1.180105 1.4928556,1.464849 1.5079066,1.150894 3.3415127,1.816011 5.1928154,1.883626 0.08507,0.0031 0.492765,-0.01116 0.90598,-0.03171 z"
     id="path14" />
</svg>
