<?xml version="1.0" encoding="UTF-8" standalone="no"?>
<svg
   xmlns:dc="http://purl.org/dc/elements/1.1/"
   xmlns:cc="http://creativecommons.org/ns#"
   xmlns:rdf="http://www.w3.org/1999/02/22-rdf-syntax-ns#"
   xmlns:svg="http://www.w3.org/2000/svg"
   xmlns="http://www.w3.org/2000/svg"
   xmlns:sodipodi="http://sodipodi.sourceforge.net/DTD/sodipodi-0.dtd"
   xmlns:inkscape="http://www.inkscape.org/namespaces/inkscape"
   viewBox="0 0 24 24"
   fill="none"
   stroke="currentColor"
   stroke-width="2"
   stroke-linecap="round"
   stroke-linejoin="round"
   class="feather feather-info"
   version="1.1"
   id="svg8"
   sodipodi:docname="info.svg"
   inkscape:version="1.0.2-2 (e86c870879, 2021-01-15)">
  <metadata
     id="metadata14">
    <rdf:RDF>
      <cc:Work
         rdf:about="">
        <dc:format>image/svg+xml</dc:format>
        <dc:type
           rdf:resource="http://purl.org/dc/dcmitype/StillImage" />
      </cc:Work>
    </rdf:RDF>
  </metadata>
  <defs
     id="defs12" />
  <sodipodi:namedview
     pagecolor="#ffffff"
     bordercolor="#666666"
     borderopacity="1"
     objecttolerance="10"
     gridtolerance="10"
     guidetolerance="10"
     inkscape:pageopacity="0"
     inkscape:pageshadow="2"
     inkscape:window-width="1920"
     inkscape:window-height="1000"
     id="namedview10"
     showgrid="false"
     inkscape:zoom="33.916667"
     inkscape:cx="12"
     inkscape:cy="12.132581"
     inkscape:window-x="-11"
     inkscape:window-y="-11"
     inkscape:window-maximized="1"
     inkscape:current-layer="svg8"
     inkscape:document-rotation="0" />
  <path
     d="M 22,12 A 10,10 0 0 1 12,22 10,10 0 0 1 2,12 10,10 0 0 1 12,2 10,10 0 0 1 22,12 Z"
     id="path24" />
  <path
     d="M 12,16 V 12"
     id="path22" />
  <path
     d="M 12,8 V 8"
     id="line6"
     style="fill:#ffffff" />
  <path
     style="fill:#ffffff;stroke-width:0.0589681"
     d="M 11.714718,8.9400173 C 11.46172,8.8572817 11.244849,8.6688728 11.109762,8.4144548 c -0.05628,-0.1059958 -0.0673,-0.1722879 -0.06762,-0.406734 -4.45e-4,-0.3308138 0.06183,-0.4912793 0.272383,-0.7018301 0.192164,-0.1921642 0.411921,-0.2820054 0.689802,-0.2820054 0.194959,0 0.252399,0.013036 0.419139,0.095122 0.210314,0.1035373 0.360966,0.2559352 0.468281,0.4737094 0.05497,0.1115487 0.06642,0.183402 0.0661,0.4150044 -4.3e-4,0.3196943 -0.04599,0.4383963 -0.255531,0.6657183 -0.234981,0.2549247 -0.666809,0.3714853 -0.987605,0.2665782 z"
     id="path32" />
  <path
     style="fill:#ffffff;stroke-width:0.0589681"
     d="m 11.667529,16.927239 c -0.146632,-0.05568 -0.351113,-0.204222 -0.432322,-0.314064 -0.03579,-0.0484 -0.09714,-0.156886 -0.136333,-0.241077 l -0.07127,-0.153075 -2.88e-4,-2.202825 c -2.81e-4,-2.15022 0.0012,-2.20669 0.06027,-2.364667 0.0802,-0.214347 0.283205,-0.435888 0.493677,-0.538747 0.143782,-0.07027 0.20442,-0.08216 0.418743,-0.08216 0.214323,0 0.274961,0.0119 0.418743,0.08216 0.210472,0.102859 0.41348,0.3244 0.493677,0.538747 0.0591,0.157952 0.06055,0.214785 0.06053,2.364667 l -2.4e-5,2.202825 -0.08614,0.18209 c -0.10004,0.211464 -0.272084,0.390261 -0.468322,0.486705 -0.172125,0.08459 -0.576107,0.105801 -0.750932,0.03942 z"
     id="path34" />
  <path
     style="fill:#ffffff;stroke-width:0.0589681"
     d="M 11.307125,22.967278 C 9.7958822,22.846016 8.4833696,22.497669 7.2088452,21.879576 4.1713286,20.406502 1.9635977,17.591145 1.2555833,14.287819 0.96940962,12.952642 0.9430018,11.457598 1.1816306,10.101087 1.9570774,5.692976 5.3563038,2.1754645 9.7297297,1.2555334 10.987709,0.99092304 12.288388,0.94692867 13.547912,1.1263867 c 4.081405,0.5815224 7.505613,3.4158777 8.84269,7.3194539 0.858052,2.5050654 0.77839,5.2711264 -0.221888,7.7045504 -1.521967,3.702563 -4.91897,6.283143 -8.900901,6.761693 -0.379455,0.0456 -1.638506,0.08104 -1.960688,0.05519 z m 1.960688,-2.041703 c 1.221938,-0.181113 2.322558,-0.567811 3.329244,-1.169715 0.72129,-0.431263 1.258001,-0.858542 1.879132,-1.495991 2.364732,-2.426856 3.15422,-5.987724 2.041647,-9.2085494 C 19.491243,6.0794022 16.979099,3.8495325 13.913825,3.1893623 13.206152,3.0369501 12.929369,3.011181 12,3.011181 c -0.933779,0 -1.222392,0.02704 -1.916462,0.1795507 C 8.3623515,3.5689354 6.8370094,4.4068584 5.5965175,5.655607 3.455454,7.8109214 2.5484354,10.914158 3.1870473,13.899271 c 0.3059026,1.429904 0.9653389,2.777329 1.9072838,3.897148 0.2904938,0.345349 0.9383805,0.980599 1.2742193,1.249366 1.348973,1.079562 3.006495,1.748006 4.7934566,1.933101 0.437217,0.04529 1.647264,0.01465 2.105806,-0.05331 z"
     id="path36" />
  <path
     style="fill:#cccccc;stroke-width:0.0589681"
     d="M 10.717445,22.861078 C 8.6023763,22.590758 6.7210927,21.787934 5.0712531,20.451606 4.6346362,20.097957 3.8424478,19.294571 3.4710628,18.828796 2.1419217,17.161846 1.3552278,15.250215 1.115776,13.105554 1.0588996,12.596139 1.0672686,11.301372 1.1308314,10.776316 1.4412254,8.2123303 2.5617967,5.9409821 4.3965949,4.1567599 6.0986595,2.5016123 8.2050413,1.4848636 10.628993,1.1483869 c 0.476401,-0.066131 1.800423,-0.091287 2.32078,-0.044093 4.220316,0.3827557 7.834171,3.1457565 9.306719,7.1155231 1.106054,2.981754 0.848524,6.316889 -0.701565,9.08559 -1.634577,2.91961 -4.482105,4.925276 -7.785885,5.484014 -0.861779,0.145744 -2.222001,0.177685 -3.051597,0.07166 z m 2.137592,-1.854363 c 1.763152,-0.132449 3.624312,-0.912051 4.997543,-2.093369 0.356871,-0.306998 0.954062,-0.923718 1.227121,-1.267251 1.133771,-1.426387 1.782118,-3.060425 1.945512,-4.903299 0.04739,-0.534463 0.01779,-1.510339 -0.06188,-2.04019 C 20.563319,8.0421075 19.088538,5.7699892 16.826212,4.3287514 16.163218,3.9063843 15.20724,3.4855981 14.421092,3.2701066 13.595084,3.043689 12.960081,2.9631914 12,2.9631914 c -0.984675,0 -1.624037,0.083744 -2.4682938,0.3232987 C 8.940276,3.4543061 8.5441156,3.6088633 7.945946,3.9051556 5.5623023,5.0858491 3.8236982,7.2724428 3.1979882,9.8765286 3.0062826,10.674371 2.9660685,11.042557 2.9660685,11.999903 c 0,0.741509 0.00883,0.911801 0.066537,1.282555 0.3095056,1.988653 1.1181142,3.631556 2.4650873,5.00848 0.5480851,0.560272 0.9119935,0.868812 1.4489015,1.228452 1.1890449,0.796465 2.4603789,1.264329 4.0362067,1.485364 0.255011,0.03577 1.406127,0.03698 1.872236,0.002 z"
     id="path29" />
  <path
     style="fill:#cccccc;stroke-width:0.0589681"
     d="m 11.62741,16.854019 c -0.183197,-0.08575 -0.359031,-0.260175 -0.456073,-0.452416 l -0.08676,-0.171861 0.0081,-2.26234 0.0081,-2.262339 0.08032,-0.136636 c 0.108521,-0.184602 0.346886,-0.393124 0.51478,-0.450331 0.176016,-0.05997 0.432302,-0.05997 0.608318,0 0.167894,0.05721 0.406259,0.265729 0.51478,0.450331 l 0.08032,0.136636 0.01862,1.253071 c 0.01024,0.689189 0.02019,1.694604 0.02211,2.234256 l 0.0035,0.981185 -0.08823,0.174787 c -0.112035,0.22194 -0.237634,0.364867 -0.40876,0.465153 -0.116345,0.06818 -0.1741,0.08045 -0.416104,0.08839 -0.229618,0.0075 -0.303313,-0.0012 -0.402983,-0.04788 z"
     id="path31" />
  <path
     style="fill:#cccccc;stroke-width:0.0589681"
     d="M 11.832719,8.9159441 C 11.589177,8.8708949 11.378454,8.7252001 11.216286,8.4897404 11.11676,8.345233 11.104398,8.3061728 11.092357,8.0981744 11.066902,7.6584524 11.243095,7.33881 11.60984,7.1593786 c 0.219175,-0.1072327 0.538826,-0.1157248 0.747577,-0.019861 0.176082,0.080861 0.362209,0.2501533 0.462396,0.4205728 0.07282,0.1238624 0.07945,0.1613057 0.07945,0.4485317 V 8.3220095 L 12.783728,8.4897406 C 12.563052,8.8101123 12.182525,8.980649 11.832719,8.9159441 Z"
     id="path33" />
</svg>
