<?xml version="1.0" encoding="UTF-8" standalone="no"?>
<svg
   xmlns:dc="http://purl.org/dc/elements/1.1/"
   xmlns:cc="http://creativecommons.org/ns#"
   xmlns:rdf="http://www.w3.org/1999/02/22-rdf-syntax-ns#"
   xmlns:svg="http://www.w3.org/2000/svg"
   xmlns="http://www.w3.org/2000/svg"
   xmlns:sodipodi="http://sodipodi.sourceforge.net/DTD/sodipodi-0.dtd"
   xmlns:inkscape="http://www.inkscape.org/namespaces/inkscape"
   viewBox="0 0 24 24"
   fill="none"
   stroke="currentColor"
   stroke-width="2"
   stroke-linecap="round"
   stroke-linejoin="round"
   class="feather feather-info"
   version="1.1"
   id="svg8"
   sodipodi:docname="buttonBorder.svg"
   inkscape:version="1.0.2-2 (e86c870879, 2021-01-15)">
  <metadata
     id="metadata14">
    <rdf:RDF>
      <cc:Work
         rdf:about="">
        <dc:format>image/svg+xml</dc:format>
        <dc:type
           rdf:resource="http://purl.org/dc/dcmitype/StillImage" />
        <dc:title></dc:title>
      </cc:Work>
    </rdf:RDF>
  </metadata>
  <defs
     id="defs12" />
  <sodipodi:namedview
     pagecolor="#ffffff"
     bordercolor="#666666"
     borderopacity="1"
     objecttolerance="10"
     gridtolerance="10"
     guidetolerance="10"
     inkscape:pageopacity="0"
     inkscape:pageshadow="2"
     inkscape:window-width="1920"
     inkscape:window-height="1000"
     id="namedview10"
     showgrid="false"
     inkscape:zoom="33.916667"
     inkscape:cx="12"
     inkscape:cy="12"
     inkscape:window-x="-11"
     inkscape:window-y="-11"
     inkscape:window-maximized="1"
     inkscape:current-layer="svg8" />
  <circle
     cx="12"
     cy="12"
     r="10"
     id="circle2" />
  <path
     style="fill:#cccccc;stroke-width:0"
     d="M 11.840026,0.92016662 C 8.8768782,0.93831353 5.950279,2.2325522 3.9357149,4.4042922 2.2420947,6.1697926 1.1955762,8.5237339 0.95969002,10.95472 c -0.0683434,1.03157 -0.0617751,2.077332 0.14863368,3.093633 0.5865415,3.260433 2.7435527,6.185611 5.6718514,7.729576 1.4217836,0.764222 3.0149107,1.202958 4.6253029,1.291093 1.191495,0.0204 2.398362,-0.038 3.546855,-0.382527 2.813751,-0.767305 5.283611,-2.698725 6.705237,-5.245391 0.999911,-1.771571 1.499953,-3.822565 1.415523,-5.855944 C 22.987738,8.873142 21.848925,6.2108633 19.945726,4.2762109 18.050147,2.3212914 15.419197,1.080929 12.692759,0.9424524 12.408884,0.92511934 12.124416,0.91779054 11.840026,0.92016662 Z m 0.429073,2.18809508 c 1.274922,-0.00277 2.554334,0.3523536 3.698634,0.9112406 1.830849,0.9046263 3.325067,2.4711031 4.15744,4.3276945 0.88753,1.9184542 1.009015,4.1479752 0.425829,6.1685622 -0.658809,2.234751 -2.217476,4.17992 -4.263707,5.29789 -1.575633,0.86757 -3.411252,1.232657 -5.19121,1.049093 C 9.0655793,20.669855 7.1162742,19.737739 5.6928363,18.278486 4.6907331,17.305784 3.959936,16.063776 3.5172921,14.738195 2.7618958,12.40124 3.0123178,9.7597377 4.2413903,7.6281768 4.6607726,6.8622428 5.1967203,6.1712592 5.8395155,5.5813636 7.0086144,4.4242148 8.5067941,3.6414909 10.106054,3.2907517 10.8171,3.1173112 11.546053,3.099602 12.269099,3.1082617 Z"
     id="path843" />
</svg>
