<?xml version="1.0" encoding="UTF-8" standalone="no"?>
<svg
   xmlns:dc="http://purl.org/dc/elements/1.1/"
   xmlns:cc="http://creativecommons.org/ns#"
   xmlns:rdf="http://www.w3.org/1999/02/22-rdf-syntax-ns#"
   xmlns:svg="http://www.w3.org/2000/svg"
   xmlns="http://www.w3.org/2000/svg"
   xmlns:sodipodi="http://sodipodi.sourceforge.net/DTD/sodipodi-0.dtd"
   xmlns:inkscape="http://www.inkscape.org/namespaces/inkscape"
   viewBox="0 0 24 24"
   fill="none"
   stroke="currentColor"
   stroke-width="2"
   stroke-linecap="round"
   stroke-linejoin="round"
   class="feather feather-help-circle"
   version="1.1"
   id="svg8"
   sodipodi:docname="help.svg"
   inkscape:version="1.0.2-2 (e86c870879, 2021-01-15)">
  <metadata
     id="metadata14">
    <rdf:RDF>
      <cc:Work
         rdf:about="">
        <dc:format>image/svg+xml</dc:format>
        <dc:type
           rdf:resource="http://purl.org/dc/dcmitype/StillImage" />
        <dc:title></dc:title>
      </cc:Work>
    </rdf:RDF>
  </metadata>
  <defs
     id="defs12" />
  <sodipodi:namedview
     pagecolor="#ffffff"
     bordercolor="#666666"
     borderopacity="1"
     objecttolerance="10"
     gridtolerance="10"
     guidetolerance="10"
     inkscape:pageopacity="0"
     inkscape:pageshadow="2"
     inkscape:window-width="1920"
     inkscape:window-height="1000"
     id="namedview10"
     showgrid="false"
     inkscape:zoom="33.916667"
     inkscape:cx="7.4172989"
     inkscape:cy="12.96292"
     inkscape:window-x="-11"
     inkscape:window-y="-11"
     inkscape:window-maximized="1"
     inkscape:current-layer="svg8" />
  <circle
     cx="12"
     cy="12"
     r="10"
     id="circle2" />
  <path
     d="M9.09 9a3 3 0 0 1 5.83 1c0 2-3 3-3 3"
     id="path4" />
  <line
     x1="12"
     y1="17"
     x2="12"
     y2="17"
     id="line6" />
  <path
     style="fill:#cccccc;stroke-width:0;stroke-miterlimit:4;stroke-dasharray:none"
     d="M 11.868175,5.9199551 C 10.229986,5.9165759 8.6731721,7.0212486 8.1113725,8.5566296 7.7814796,9.1988671 8.3003785,10.049418 9.0162661,10.07171 9.486311,10.123439 9.9024963,9.806621 10.091422,9.3936497 10.302025,8.8987071 10.65066,8.4296525 11.178713,8.2416151 c 0.746819,-0.3404215 1.683525,-0.1085635 2.198199,0.5269097 0.364371,0.4116892 0.554829,1.0239725 0.397177,1.5596362 -0.356477,0.747797 -1.144429,1.165829 -1.856813,1.50325 -0.443352,0.17551 -0.967252,0.425903 -1.054709,0.950585 -0.185061,0.72541 0.579839,1.477639 1.301638,1.256684 1.305385,-0.409022 2.524352,-1.203133 3.319938,-2.328664 0.751784,-1.135244 0.614601,-2.6788646 -0.07384,-3.8099636 C 14.688745,6.6676138 13.294219,5.8945631 11.868175,5.9199551 Z"
     id="path841" />
  <path
     style="fill:#cccccc;stroke-width:0;stroke-miterlimit:4;stroke-dasharray:none"
     d="m 11.905962,15.941663 c -0.565584,0.0061 -1.052622,0.582501 -0.968064,1.143809 -0.0027,0.726507 0.887732,1.224828 1.519487,0.887765 0.610572,-0.265075 0.811132,-1.126984 0.382519,-1.635211 -0.222519,-0.285092 -0.570906,-0.444243 -0.933942,-0.396363 z"
     id="path843" />
  <path
     style="fill:#cccccc;stroke-width:0;stroke-miterlimit:4;stroke-dasharray:none"
     d="M 11.813203,0.92367887 C 8.3773663,0.96084712 5.0156031,2.7161309 3.0225489,5.5155966 1.280092,7.8984608 0.56815772,10.994456 1.0881782,13.899615 c 0.2611104,1.595875 0.9241812,3.109388 1.83277,4.44056 1.7556877,2.532323 4.6084141,4.272814 7.6704528,4.645184 1.753175,0.240702 3.564109,0.01288 5.227049,-0.581357 3.355065,-1.209207 6.011904,-4.146855 6.897643,-7.599194 C 23.56482,11.625865 22.89127,8.0868249 20.930442,5.4441376 19.607477,3.6264938 17.698541,2.2604524 15.584557,1.5143552 14.371523,1.111098 13.092141,0.90340468 11.813203,0.92367887 Z m 0.288213,2.17246393 c 2.011614,-0.012281 4.014562,0.7619464 5.567313,2.0322047 2.095105,1.6987092 3.332799,4.3917748 3.241851,7.0812155 -0.05883,2.417098 -1.133683,4.82026 -2.965842,6.426831 -2.041192,1.850089 -4.993579,2.673514 -7.680394,2.104113 C 7.6579925,20.242037 5.3423296,18.508319 4.1200672,16.154567 3.3886827,14.767092 3.0085112,13.180773 3.1042095,11.610498 3.1839134,8.7007044 4.8482779,5.9228772 7.325914,4.412395 8.7500611,3.5345566 10.42596,3.0512158 12.101416,3.0961428 Z"
     id="path845" />
</svg>
